# xmcd
#
# Track frame offsets: 
#        182
#        12504
#        26458
#        39358
#        54341
#        66782
#        81434
#        96257
#        110168
#        123640
#        136793
#        149282
#        162514
#        176112
#        190653
#        203851
#        217220
#        230484
#
# Disc length: 3258 seconds
#
# Revision: 3
# Processed by: cddbd v1.5.2PL0 Copyright (c) Steve Scherf et al.
# Submitted via: ExactAudioCopyFreeDBPlugin 1.0
#
DISCID=0b0cb812
DTITLE=Various Artist - Roots of Rhythm and Blues, 1939-1945
DYEAR=2001
DGENRE=Rhythm and Blues
TTITLE0=Louis Jordan and His Tympany Five - Caldonia
TTITLE1=Joe Liggins and His Honeydrippers - The Honeydripper, Part 1
TTITLE2=Roy Milton and His Solid Senders - Milton's Boogie
TTITLE3=Nat King Cole Trio - That Ain't Right
TTITLE4=Cecil Gant - Wonder
TTITLE5=Charles Brown with Johnny Moore's Three Blazers - Drifting Blu
TTITLE5=es
TTITLE6=Ivory Hunter with Johnny Moore's Three Blazers - Blues at Sunr
TTITLE6=ise
TTITLE7=T-Bone Walker with Marl Young and His Orchestra - T-Bone Boogie
TTITLE8=Arthur "Big Boy" Crudup - Rock Me Mama
TTITLE9=Julia Lee with Tommy Douglas' Orchestra - If It's Good
TTITLE10=Helen Humes with Bill Doggett's Octet - Be-Baba-Leba
TTITLE11=Dinah Washington with Lucky Thompson's All Stars - Rich Man's
TTITLE11=Blues
TTITLE12=Albert Ammons and His Rhythm Kings - Boogie Woogie Stomp
TTITLE13=Ella Mae Morse with Freddie Slack and His Orchestra - Cow Cow
TTITLE13=Boogie
TTITLE14=Jimmy Rushing with Count Basie and His Orchestra - Jimmy's Bl
TTITLE14=ues
TTITLE15=Big Joe Turner and His Fly Cats - Piney Brown Blues
TTITLE16=Wynonie "Blues" Harris with Illinois Jacquet and His All Stars 
TTITLE16=/ Here Comes the Blues
TTITLE17=Eddie Vinson with Cootie Williams and His Orchestra - Cherry 
TTITLE17=Red Blues
EXTD=
EXTT0=
EXTT1=
EXTT2=
EXTT3=
EXTT4=
EXTT5=
EXTT6=
EXTT7=
EXTT8=
EXTT9=
EXTT10=
EXTT11=
EXTT12=
EXTT13=
EXTT14=
EXTT15=
EXTT16=
EXTT17=
PLAYORDER=
